<svg  xmlns="http://www.w3.org/2000/svg" focusable="false" fill="#0073E6" viewBox="0 0 48 52"><path fill-rule="evenodd" clip-rule="evenodd" d="M47.3332 17.5413C47.3332 15.5973 46.5598 13.7333 45.1865 12.3573C42.6185 9.792 37.5412 4.71467 34.9758 2.14667C33.5998 0.773334 31.7358 0 29.7918 0C26.3118 0 19.3385 0 13.3332 0C9.97317 0 6.75184 1.33333 4.37584 3.70933C1.99984 6.08533 0.666504 9.30667 0.666504 12.6667V39.3333C0.666504 46.328 6.3385 52 13.3332 52H34.6665C41.6612 52 47.3332 46.328 47.3332 39.3333C47.3332 31.6293 47.3332 21.8507 47.3332 17.5413ZM29.9998 4.00533C29.9305 4.00267 29.8612 4 29.7918 4C26.3118 4 19.3385 4 13.3332 4C11.0345 4 8.82917 4.912 7.20517 6.53867C5.5785 8.16267 4.6665 10.368 4.6665 12.6667V39.3333C4.6665 44.12 8.5465 48 13.3332 48H34.6665C39.4532 48 43.3332 44.12 43.3332 39.3333C43.3332 31.6293 43.3332 21.8507 43.3332 17.5413C43.3332 17.472 43.3305 17.4027 43.3278 17.3333H37.3332C35.3892 17.3333 33.5225 16.56 32.1465 15.1867C30.7732 13.8107 29.9998 11.944 29.9998 10V4.00533ZM40.5038 13.3333L33.9998 6.82933V10C33.9998 10.8853 34.3518 11.7307 34.9758 12.3573C35.6025 12.9813 36.4478 13.3333 37.3332 13.3333H40.5038Z"></path><path fill-rule="evenodd" clip-rule="evenodd" d="M23.9997 18.666H24.0477C24.2317 18.6713 24.4103 18.7007 24.5783 18.7513L24.5837 18.754C24.8877 18.8447 25.173 19.0127 25.413 19.2527L30.7463 24.586C31.5277 25.3647 31.5277 26.634 30.7463 27.4127C29.9677 28.194 28.6983 28.194 27.9197 27.4127L25.9997 25.4953V33.9993C25.9997 35.1033 25.1037 35.9993 23.9997 35.9993C22.8957 35.9993 21.9997 35.1033 21.9997 33.9993V25.4953L20.0797 27.4127C19.301 28.194 18.0317 28.194 17.253 27.4127C16.4717 26.634 16.4717 25.3647 17.253 24.586L22.5863 19.2527C22.8263 19.0127 23.1117 18.8447 23.4157 18.754L23.421 18.7513C23.589 18.7007 23.7677 18.6713 23.9517 18.666H23.9997Z"></path></svg>