<svg  xmlns="http://www.w3.org/2000/svg" focusable="false" fill="#0073E6" aria-hidden="true" viewBox="0 0 61 60"><path d="M53.9753 35.6933C53.2638 34.9817 52.3919 34.4887 51.4412 34.2469C51.8784 32.4363 51.3919 30.4462 49.9812 29.0355C49.2558 28.31 48.3769 27.8299 47.4482 27.5932C47.8609 25.8873 47.4791 23.8706 45.9861 22.3778C45.4853 21.8769 44.911 21.4942 44.298 21.2262L49.982 15.5429C52.1377 13.3847 52.1416 9.89115 49.9812 7.73105C47.8236 5.5733 44.3297 5.56955 42.1686 7.73105L24.4383 25.4614L23.4013 20.968C22.806 18.3867 20.854 16.3294 18.3071 15.5991C15.7608 14.8685 13.0153 15.5788 11.1422 17.4528C11.142 17.453 11.1417 17.4533 11.1414 17.4535C10.8117 17.7835 10.6262 18.2317 10.6266 18.6983L10.6485 40.5663L5.51494 45.7C4.82835 46.3866 4.82835 47.4997 5.51494 48.1863L16.8134 59.4849C17.143 59.8146 17.5903 59.9999 18.0565 59.9999H34.4141C36.3919 59.9999 38.2519 59.2292 39.6512 57.8299L53.9752 43.5058C56.1064 41.3767 56.1596 37.8745 53.9753 35.6933ZM44.6549 31.5217C45.4402 30.7364 46.7107 30.7375 47.4949 31.5217C48.2779 32.3047 48.2779 33.5788 47.4949 34.3618L43.4999 38.3568C42.7133 39.1434 41.4426 39.1396 40.6602 38.3571C39.8772 37.5736 39.877 36.2993 40.6597 35.5166L44.6549 31.5217ZM38.1736 33.0305C37.3906 33.8134 36.1166 33.8129 35.3336 33.0305C34.5505 32.2474 34.5505 30.9734 35.3336 30.1905L40.6599 24.864C41.4435 24.0805 42.7175 24.0816 43.4999 24.864C44.2853 25.6493 44.284 26.9201 43.4999 27.7041C43.4998 27.7042 43.4994 27.7045 43.4995 27.7044C43.4999 27.7041 38.1736 33.0305 38.1736 33.0305ZM37.1651 55.3434C36.4405 56.068 35.4379 56.4837 34.4142 56.4837H18.7848L9.24443 46.9431L13.6505 42.5369C13.9807 42.2067 14.1659 41.7589 14.1655 41.2919L14.1437 19.5079C15.065 18.8672 16.2374 18.6632 17.3377 18.9789C18.6564 19.357 19.667 20.422 19.9752 21.7582L21.7258 29.3428C21.801 29.669 21.9666 29.9596 22.1948 30.1883C22.1951 30.1889 23.527 31.5217 23.527 31.5217C26.5126 34.5073 26.5126 39.3652 23.527 42.3509C22.8404 43.0375 22.8404 44.1506 23.527 44.8372C24.2136 45.5239 25.3269 45.5236 26.0133 44.8372C30.3698 40.4806 30.3698 33.392 26.0133 29.0355L25.925 28.9473L44.655 10.2172C45.4585 9.41354 46.7304 9.45268 47.4949 10.2173C48.2788 11.0011 48.2793 12.2719 47.4949 13.0573L32.8473 27.7041C30.6933 29.8579 30.6933 33.3627 32.8476 35.5171C33.8765 36.5452 35.2128 37.0811 36.5632 37.1273C36.6095 38.4776 37.1455 39.8142 38.1736 40.843C39.2016 41.8712 40.5373 42.4073 41.8871 42.4539C41.9346 43.8578 42.5021 45.1706 43.499 46.1678C43.993 46.6623 44.5647 47.05 45.1861 47.3228L37.1651 55.3434ZM51.4898 41.0187C51.4894 41.019 51.4892 41.0193 51.4888 41.0195L48.8255 43.683C48.0514 44.458 46.7785 44.4756 45.9861 43.6823C45.1961 42.8923 45.2081 41.621 45.9867 40.8426L48.6498 38.1795C49.4401 37.3893 50.7109 37.4016 51.4897 38.1804C52.2845 38.974 52.262 40.2474 51.4898 41.0187Z"></path><path d="M23.7058 11.0392C24.6768 11.0392 25.4639 10.2521 25.4639 9.28114V1.74881C25.371 -0.583816 22.0398 -0.582057 21.9478 1.74881V9.28126C21.9478 10.2522 22.7349 11.0392 23.7058 11.0392Z"></path><path d="M14.9302 10.5249C15.6168 11.2116 16.7301 11.2113 17.4165 10.5249C18.1031 9.83828 18.1031 8.72518 17.4165 8.03859L15.5335 6.15557C14.847 5.46898 13.7338 5.46898 13.0472 6.15557C12.3606 6.84216 12.3606 7.95526 13.0472 8.64185L14.9302 10.5249Z"></path><path d="M32.4817 10.5249L34.3647 8.64185C35.0513 7.95526 35.0513 6.84216 34.3647 6.15557C33.6782 5.46898 32.565 5.46898 31.8784 6.15557L29.9954 8.03859C29.3088 8.72518 29.3088 9.83828 29.9954 10.5249C30.682 11.2116 31.7952 11.2113 32.4817 10.5249Z"></path></svg>