<svg  xmlns="http://www.w3.org/2000/svg" focusable="false" fill="#0073E6"  viewBox="0 0 64 64"><path d="M8 32C8 33.1045 7.1045 34 6 34C4.8955 34 4 33.1045 4 32C4 16.5605 16.5605 4 32 4C39.6955 4 46.816 7.0665 52 12.3465V6C52 4.8955 52.8955 4 54 4C55.1045 4 56 4.8955 56 6V18C56 19.1045 55.1045 20 54 20H42C40.8955 20 40 19.1045 40 18C40 16.8955 40.8955 16 42 16H49.954C45.4665 10.952 39.011 8 32 8C18.7665 8 8 18.7665 8 32ZM58 30C56.8955 30 56 30.8955 56 32C56 45.2335 45.2335 56 32 56C24.989 56 18.5335 53.048 14.046 48H22C23.1045 48 24 47.1045 24 46C24 44.8955 23.1045 44 22 44H10C8.8955 44 8 44.8955 8 46V58C8 59.1045 8.8955 60 10 60C11.1045 60 12 59.1045 12 58V51.6535C17.184 56.9335 24.3045 60 32 60C47.4395 60 60 47.4395 60 32C60 30.8955 59.1045 30 58 30Z"></path></svg>