<svg  xmlns="http://www.w3.org/2000/svg" focusable="false" fill="#0073E6" viewBox="0 0 61 60"><path d="M43.7614 20.4808C44.6769 21.3963 44.6769 22.8804 43.7614 23.7955L28.0381 39.5192C27.1226 40.4343 25.639 40.4343 24.7235 39.5192L17.2386 32.0338C16.3231 31.1188 16.3231 29.6347 17.2386 28.7196C18.1537 27.8041 19.6377 27.8041 20.5528 28.7196L26.3806 34.5474L40.4467 20.4808C41.3623 19.5657 42.8463 19.5657 43.7614 20.4808ZM60.5 30C60.5 46.5825 47.0802 60 30.5 60C13.9175 60 0.5 46.5802 0.5 30C0.5 13.4175 13.9198 0 30.5 0C47.0825 0 60.5 13.4198 60.5 30ZM55.8125 30C55.8125 16.0085 44.4897 4.6875 30.5 4.6875C16.5085 4.6875 5.1875 16.0103 5.1875 30C5.1875 43.9915 16.5103 55.3125 30.5 55.3125C44.4915 55.3125 55.8125 43.9897 55.8125 30Z"></path></svg>