<svg  xmlns="http://www.w3.org/2000/svg" focusable="false" fill="#0073E6" viewBox="0 0 61 60"><path d="M55.7412 47.8521C56.8296 46.5346 57.4844 44.8462 57.4844 43.0078C57.4844 38.8077 54.0673 35.3906 49.8672 35.3906C47.0818 35.3906 44.6419 36.8944 43.3136 39.1318L36.2683 36.9438C36.1837 34.7412 34.7425 32.8813 32.7578 32.1773V24.6094H40.375C41.3458 24.6094 42.1328 23.8223 42.1328 22.8516V20.5078C42.1328 16.9168 39.9671 13.8238 36.874 12.4615C37.9625 11.1439 38.6172 9.45562 38.6172 7.61719C38.6172 3.41707 35.2001 0 31 0C26.7999 0 23.3828 3.41707 23.3828 7.61719C23.3828 9.45562 24.0375 11.1439 25.126 12.4615C22.0329 13.8238 19.8672 16.9168 19.8672 20.5078V22.8516C19.8672 23.8223 20.6542 24.6094 21.625 24.6094H29.2422V32.1773C27.2575 32.8813 25.8163 34.7412 25.7317 36.9438L18.6864 39.1318C17.3581 36.8944 14.9182 35.3906 12.1328 35.3906C7.9327 35.3906 4.51562 38.8077 4.51562 43.0078C4.51562 44.8462 5.17035 46.5346 6.25879 47.8521C3.16574 49.2144 1 52.3075 1 55.8984V58.2422C1 59.213 1.78703 60 2.75781 60H21.5078C22.4786 60 23.2656 59.213 23.2656 58.2422V55.8984C23.2656 52.3075 21.0999 49.2144 18.0068 47.8521C19.0953 46.5346 19.75 44.8462 19.75 43.0078C19.75 42.8332 19.7419 42.6606 19.7303 42.489L26.7752 40.3011C27.7377 41.5876 29.2732 42.4219 31 42.4219C32.7268 42.4219 34.2623 41.5876 35.2248 40.3011L42.2697 42.489C42.2581 42.6606 42.25 42.8332 42.25 43.0078C42.25 44.8462 42.9047 46.5346 43.9932 47.8521C40.9001 49.2144 38.7344 52.3075 38.7344 55.8984V58.2422C38.7344 59.213 39.5214 60 40.4922 60H59.2422C60.213 60 61 59.213 61 58.2422V55.8984C61 52.3075 58.8343 49.2144 55.7412 47.8521V47.8521ZM31 3.51562C33.2616 3.51562 35.1016 5.35559 35.1016 7.61719C35.1016 9.87879 33.2616 11.7188 31 11.7188C28.7384 11.7188 26.8984 9.87879 26.8984 7.61719C26.8984 5.35559 28.7384 3.51562 31 3.51562ZM23.3828 20.5078C23.3828 17.6 25.7485 15.2344 28.6562 15.2344H33.3438C36.2515 15.2344 38.6172 17.6 38.6172 20.5078V21.0938H23.3828V20.5078ZM12.1328 38.9062C14.3944 38.9062 16.2344 40.7462 16.2344 43.0078C16.2344 45.2694 14.3944 47.1094 12.1328 47.1094C9.87121 47.1094 8.03125 45.2694 8.03125 43.0078C8.03125 40.7462 9.87121 38.9062 12.1328 38.9062ZM19.75 55.8984V56.4844H4.51562V55.8984C4.51562 52.9907 6.88129 50.625 9.78906 50.625H14.4766C17.3843 50.625 19.75 52.9907 19.75 55.8984ZM31 38.9062C30.0307 38.9062 29.2422 38.1177 29.2422 37.1484C29.2422 36.1792 30.0307 35.3906 31 35.3906C31.9693 35.3906 32.7578 36.1792 32.7578 37.1484C32.7578 38.1177 31.9693 38.9062 31 38.9062ZM49.8672 38.9062C52.1288 38.9062 53.9688 40.7462 53.9688 43.0078C53.9688 45.2694 52.1288 47.1094 49.8672 47.1094C47.6056 47.1094 45.7656 45.2694 45.7656 43.0078C45.7656 40.7462 47.6056 38.9062 49.8672 38.9062ZM57.4844 56.4844H42.25V55.8984C42.25 52.9907 44.6157 50.625 47.5234 50.625H52.2109C55.1187 50.625 57.4844 52.9907 57.4844 55.8984V56.4844Z"></path></svg>