<svg  xmlns="http://www.w3.org/2000/svg" focusable="false" fill="#0073E6"  viewBox="0 0 64 64"><path d="M58.3111 13.8672H14.2222C11.0933 13.8672 8.53333 16.378 8.53333 19.4467V21.539C8.53333 22.3062 9.17333 22.9339 9.95556 22.9339C10.7378 22.9339 11.3778 22.3062 11.3778 21.539V19.4467C11.3778 19.1677 11.4489 18.8887 11.52 18.6098L27.4489 32.0005L11.52 45.3913C11.4489 45.1123 11.3778 44.8333 11.3778 44.5544V42.4621C11.3778 41.6949 10.7378 41.0672 9.95556 41.0672C9.17333 41.0672 8.53333 41.6949 8.53333 42.4621V44.5544C8.53333 47.6231 11.0933 50.1339 14.2222 50.1339H58.3111C61.44 50.1339 64 47.6231 64 44.5544V19.4467C64 16.378 61.44 13.8672 58.3111 13.8672ZM13.6533 16.7267C13.7956 16.6569 14.0089 16.6569 14.2222 16.6569H58.3111C58.5244 16.6569 58.7378 16.6569 58.88 16.7267L37.1911 34.9298C36.6222 35.3482 35.9111 35.3482 35.3422 34.9298L13.6533 16.7267ZM58.3111 47.3441H14.2222C14.0089 47.3441 13.7956 47.3441 13.6533 47.2744L29.6533 33.8139L33.4933 37.0918C34.2756 37.7892 35.2711 38.138 36.2667 38.138C37.2622 38.138 38.2578 37.7892 39.04 37.0918L42.88 33.8139L58.88 47.2744C58.7378 47.3441 58.5244 47.3441 58.3111 47.3441ZM61.1556 44.5544C61.1556 44.8333 61.0844 45.1123 61.0133 45.3913L45.0844 32.0005L61.0133 18.6098C61.0844 18.8887 61.1556 19.1677 61.1556 19.4467V44.5544ZM4.26667 28.5133C4.26667 27.7462 4.90667 27.1185 5.68889 27.1185H14.2222C15.0044 27.1185 15.6444 27.7462 15.6444 28.5133C15.6444 29.2805 15.0044 29.9082 14.2222 29.9082H5.68889C4.90667 29.9082 4.26667 29.2805 4.26667 28.5133ZM14.2222 36.8826H1.42222C0.64 36.8826 0 36.2549 0 35.4877C0 34.7205 0.64 34.0928 1.42222 34.0928H14.2222C15.0044 34.0928 15.6444 34.7205 15.6444 35.4877C15.6444 36.2549 15.0044 36.8826 14.2222 36.8826Z"></path></svg>