<svg  xmlns="http://www.w3.org/2000/svg" focusable="false" fill="#0073E6" aria-hidden="true" viewBox="0 0 61 60"><path d="M28.8322 41.2211L26.4734 34.1446L19.3968 31.7857C17.8005 31.2536 17.797 28.9837 19.3968 28.4504L26.4734 26.0916L28.8322 19.015C29.3644 17.4186 31.6342 17.4151 32.1675 19.015L34.5264 26.0916L41.603 28.4504C43.1996 28.9827 43.2026 31.2524 41.603 31.7857L34.5264 34.1446L32.1675 41.2211C31.6354 42.8175 29.3655 42.8209 28.8322 41.2211V41.2211ZM25.5115 30.118L28.419 31.0872C28.9439 31.2621 29.3558 31.6741 29.5308 32.199L30.5 35.1065L31.4691 32.199C31.6441 31.6741 32.056 31.2621 32.5809 31.0872L35.4883 30.118L32.5809 29.1488C32.056 28.9739 31.6441 28.5619 31.4691 28.037L30.5 25.1295L29.5308 28.037C29.3558 28.5619 28.9439 28.9739 28.419 29.1488L25.5115 30.118Z"></path><path d="M7.78115 16.7243L5.37042 12.7065L1.35265 10.2959C0.219418 9.61594 0.212153 7.96554 1.35265 7.28115L5.37042 4.87042L7.78115 0.852652C8.46109 -0.280582 10.1115 -0.287847 10.7959 0.852652L13.2066 4.87042L17.2244 7.28115C18.3576 7.96109 18.3649 9.61149 17.2244 10.2959L13.2066 12.7066L10.7959 16.7243C10.1158 17.8576 8.46542 17.8649 7.78115 16.7243V16.7243ZM5.67371 8.78845L7.55614 9.91794C7.80353 10.0664 8.01061 10.2735 8.15909 10.5209L9.28857 12.4033L10.4181 10.5209C10.5665 10.2735 10.7736 10.0664 11.021 9.91794L12.9034 8.78845L11.021 7.65897C10.7736 7.51049 10.5665 7.30341 10.4181 7.05602L9.28857 5.17359L8.15909 7.05602C8.01061 7.30341 7.80353 7.51049 7.55614 7.65897L5.67371 8.78845Z"></path><path d="M50.2039 16.7244L47.7933 12.7066L43.7754 10.2959C42.6419 9.6157 42.6354 7.96531 43.7754 7.28115L47.7933 4.87042L50.2039 0.852652C50.8839 -0.280582 52.5342 -0.287847 53.2186 0.852652L55.6292 4.87042L59.6471 7.28115C60.7806 7.96132 60.7872 9.61172 59.6471 10.2959L55.6292 12.7066L53.2186 16.7244C52.5387 17.8577 50.8883 17.865 50.2039 16.7244V16.7244ZM48.0965 8.78857L49.9789 9.91806C50.2263 10.0665 50.4334 10.2736 50.5818 10.521L51.7113 12.4034L52.8408 10.521C52.9893 10.2736 53.1963 10.0665 53.4438 9.91806L55.3262 8.78857L53.4438 7.65909C53.1964 7.51061 52.9893 7.30353 52.8408 7.05614L51.7113 5.17371L50.5818 7.05614C50.4334 7.30353 50.2264 7.51061 49.9789 7.65909L48.0965 8.78857Z"></path><path d="M50.2039 59.1482L47.7933 55.1304L43.7754 52.7197C42.6419 52.0395 42.6354 50.3891 43.7754 49.705L47.7933 47.2942L50.2039 43.2765C50.8839 42.1432 52.5342 42.136 53.2186 43.2765L55.6292 47.2942L59.6471 49.705C60.7806 50.3852 60.7872 52.0356 59.6471 52.7197L55.6292 55.1304L53.2186 59.1482C52.5387 60.2814 50.8883 60.2887 50.2039 59.1482V59.1482ZM48.0965 51.2123L49.9789 52.3418C50.2263 52.4903 50.4334 52.6973 50.5818 52.9447L51.7113 54.8272L52.8408 52.9447C52.9893 52.6973 53.1963 52.4903 53.4438 52.3418L55.3262 51.2123L53.4438 50.0828C53.1964 49.9343 52.9893 49.7272 52.8408 49.4799L51.7113 47.5974L50.5818 49.4799C50.4334 49.7272 50.2264 49.9343 49.9789 50.0828L48.0965 51.2123Z"></path><path d="M7.78115 59.1482L5.37042 55.1303L1.35265 52.7197C0.219418 52.0398 0.212153 50.3894 1.35265 49.705L5.37042 47.2942L7.78115 43.2765C8.46109 42.1432 10.1115 42.136 10.7959 43.2765L13.2066 47.2942L17.2244 49.705C18.3576 50.3849 18.3649 52.0353 17.2244 52.7197L13.2066 55.1304L10.7959 59.1482C10.1158 60.2814 8.46542 60.2887 7.78115 59.1482V59.1482ZM5.67371 51.2123L7.55614 52.3418C7.80353 52.4903 8.01061 52.6973 8.15909 52.9447L9.28857 54.8272L10.4181 52.9447C10.5665 52.6973 10.7736 52.4903 11.021 52.3418L12.9034 51.2123L11.021 50.0828C10.7736 49.9343 10.5665 49.7272 10.4181 49.4799L9.28857 47.5974L8.15909 49.4799C8.01061 49.7272 7.80353 49.9343 7.55614 50.0828L5.67371 51.2123Z"></path><path d="M41.687 43.7911L36.7151 38.8192C36.0286 38.1327 36.0286 37.0197 36.7151 36.3332C37.4016 35.6467 38.5147 35.6468 39.201 36.3332L44.173 41.3051C44.8595 41.9916 44.8595 43.1046 44.173 43.7911C43.4865 44.4775 42.3734 44.4776 41.687 43.7911Z"></path><path d="M21.7988 23.9025L16.8269 18.9305C16.1404 18.244 16.1404 17.1311 16.8269 16.4446C17.5133 15.7581 18.6264 15.7581 19.3129 16.4446L24.2848 21.4165C24.9713 22.103 24.9713 23.216 24.2848 23.9025C23.5984 24.589 22.4853 24.5891 21.7988 23.9025V23.9025Z"></path><path d="M16.8269 43.7911C16.1404 43.1046 16.1404 41.9917 16.8269 41.3052L21.7988 36.3332C22.4852 35.6467 23.5983 35.6467 24.2848 36.3332C24.9713 37.0197 24.9713 38.1327 24.2848 38.8192L19.3129 43.7911C18.6265 44.4775 17.5133 44.4776 16.8269 43.7911Z"></path><path d="M36.7151 23.9025C36.0286 23.2161 36.0286 22.103 36.7151 21.4165L41.687 16.4446C42.3734 15.7581 43.4865 15.7581 44.173 16.4446C44.8595 17.131 44.8595 18.244 44.173 18.9305L39.201 23.9025C38.5147 24.589 37.4015 24.5891 36.7151 23.9025V23.9025Z"></path><path d="M30.5 56.4847C29.5292 56.4847 28.7422 55.6976 28.7422 54.7268V47.6954C28.7422 46.7246 29.5292 45.9375 30.5 45.9375C31.4709 45.9375 32.2579 46.7246 32.2579 47.6954V54.7268C32.2579 55.6976 31.4709 56.4847 30.5 56.4847Z"></path><path d="M30.5 14.2972C29.5292 14.2972 28.7422 13.5101 28.7422 12.5393V5.50786C28.7422 4.53705 29.5292 3.75 30.5 3.75C31.4709 3.75 32.2579 4.53705 32.2579 5.50786V12.5393C32.2579 13.5101 31.4709 14.2972 30.5 14.2972Z"></path><path d="M12.9211 31.8751H5.8897C4.91889 31.8751 4.13184 31.088 4.13184 30.1172C4.13184 29.1464 4.91889 28.3594 5.8897 28.3594H12.9211C13.8919 28.3594 14.679 29.1464 14.679 30.1172C14.679 31.088 13.8919 31.8751 12.9211 31.8751Z"></path><path d="M55.1101 31.8751H48.0787C47.1079 31.8751 46.3208 31.088 46.3208 30.1172C46.3208 29.1464 47.1079 28.3594 48.0787 28.3594H55.1101C56.0809 28.3594 56.868 29.1464 56.868 30.1172C56.868 31.088 56.0809 31.8751 55.1101 31.8751Z"></path></svg>