<svg  xmlns="http://www.w3.org/2000/svg" focusable="false" fill="#0073E6"  viewBox="0 0 64 64"><path d="M23.1682 24.922C23.0671 24.7513 23.001 24.5623 22.9735 24.3659C22.946 24.1694 22.9577 23.9695 23.008 23.7776C23.0583 23.5858 23.1462 23.4058 23.2665 23.2481C23.3868 23.0904 23.5372 22.9582 23.709 22.859C23.8807 22.7598 24.0705 22.6957 24.2672 22.6703C24.4639 22.645 24.6637 22.6588 24.855 22.7112C25.0463 22.7636 25.2253 22.8534 25.3817 22.9754C25.5381 23.0974 25.6687 23.2492 25.766 23.422L28.8774 28.8095L38.4739 19.2111C38.7552 18.9298 39.1367 18.7717 39.5345 18.7716C39.9324 18.7716 40.3139 18.9296 40.5953 19.2109C40.8766 19.4922 41.0347 19.8737 41.0348 20.2715C41.0348 20.6693 40.8768 21.0509 40.5955 21.3323L29.6169 32.313C29.4542 32.4757 29.2563 32.5988 29.0385 32.6728C28.8206 32.7468 28.5886 32.7697 28.3605 32.7397C28.1324 32.7097 27.9142 32.6276 27.7229 32.4998C27.5316 32.372 27.3722 32.2019 27.2572 32.0026L23.1682 24.922ZM59.8705 48.8577C55.9434 52.7635 41.6728 62.8336 38.1967 63.8464C37.798 63.9547 37.386 64.006 36.9729 63.9987C35.0253 63.9987 32.0537 63.1329 27.5662 61.7728C22.8149 60.3326 17.4423 58.7041 13.8183 58.7041C13.7409 58.7041 13.6648 58.7049 13.5889 58.7064C11.6594 58.7439 10.5404 59.5101 8.68629 60.7793L8.66879 60.7918C8.47088 60.9272 8.24337 61.0132 8.00535 61.0426C7.76733 61.072 7.52573 61.0439 7.30082 60.9607C7.0759 60.8774 6.87423 60.7414 6.71271 60.5641C6.55119 60.3869 6.43454 60.1734 6.37254 59.9417L2.57804 45.7793C2.5004 45.4897 2.5113 45.1835 2.60933 44.9002C2.70736 44.6169 2.88804 44.3695 3.12804 44.1899C5.63904 42.3119 9.45304 39.462 13.9557 38.0825V5.78113C13.9557 5.3833 14.1137 5.00177 14.395 4.72046C14.6763 4.43916 15.0578 4.28113 15.4557 4.28113H20.0205C20.2269 3.0841 20.8491 1.99832 21.7776 1.21514C22.7061 0.431951 23.8812 0.00162797 25.0959 0L38.9054 0C40.12 0.00171622 41.2951 0.432079 42.2235 1.21526C43.1519 1.99843 43.7741 3.08416 43.9804 4.28113H48.5453C48.9431 4.28113 49.3246 4.43916 49.6059 4.72046C49.8872 5.00177 50.0453 5.3833 50.0453 5.78113V44.9775C51.0279 44.488 51.9533 44.0329 52.7527 43.6452C52.9209 43.5637 53.0939 43.477 53.2709 43.3884C54.2845 42.8806 55.4334 42.3052 56.6434 42.1509C58.6559 41.8904 60.4253 42.6744 61.1484 44.1489C61.4889 44.8435 62.046 46.6926 59.8705 48.8577ZM22.946 7.41838H41.055V5.15C41.0544 4.57997 40.8277 4.03345 40.4247 3.63038C40.0216 3.2273 39.4751 3.0006 38.905 3H25.0959C24.5259 3.00063 23.9794 3.22735 23.5763 3.63041C23.1733 4.03348 22.9465 4.57998 22.9459 5.15L22.946 7.41838ZM16.956 37.4191C17.3578 37.3659 17.7633 37.3263 18.1727 37.3029C20.6519 37.1613 25.6465 39.0411 30.9352 41.0306C32.6227 41.6654 34.2159 42.2649 35.7054 42.7897C40.3054 44.4106 42.9874 46.2359 43.7037 48.2272C44.7453 47.6744 45.8912 47.0806 47.0455 46.491V7.28113H44.055V8.91862C44.055 9.31645 43.897 9.69798 43.6157 9.97929C43.3344 10.2606 42.9529 10.4186 42.555 10.4186H21.446C21.0482 10.4186 20.6667 10.2606 20.3854 9.97929C20.1041 9.69798 19.946 9.31645 19.946 8.91862V7.28113H16.956V37.4191ZM58.4548 45.4691C58.3565 45.2691 57.8338 45.021 57.0255 45.126C56.3198 45.2159 55.413 45.6698 54.6143 46.0701C54.425 46.1649 54.2403 46.2576 54.0609 46.3442C51.2507 47.7067 46.8813 49.9046 43.9299 51.5091C43.4198 51.7868 42.9607 52.0597 42.5165 52.3239C41.6935 52.8131 40.9153 53.2757 40.0593 53.6086C40.0289 53.6214 39.9984 53.633 39.9678 53.6436C38.7015 54.1186 37.2582 54.3061 35.248 53.8771C33.6094 53.5279 32.0439 52.8521 30.5298 52.1974C28.7952 51.4481 27.1569 50.7404 25.85 50.7404C25.4522 50.7404 25.0707 50.5823 24.7894 50.301C24.5081 50.0197 24.35 49.6382 24.35 49.2404C24.35 48.8426 24.5081 48.461 24.7894 48.1797C25.0707 47.8984 25.4522 47.7404 25.85 47.7404C27.7772 47.7404 29.692 48.5676 31.7195 49.4435C33.0993 50.0395 34.5259 50.656 35.8737 50.9435C37.1809 51.2225 38.0499 51.156 38.9094 50.8364C40.5532 50.0664 40.9054 49.4694 40.8983 49.3194C40.8747 48.8154 39.3303 47.2479 34.7079 45.6194C33.1887 45.0839 31.5059 44.4508 29.8784 43.8386C25.5614 42.2145 20.1943 40.1941 18.3433 40.2981C13.3917 40.581 8.78079 43.7356 5.73916 45.9856L8.73329 57.1606C10.1052 56.3382 11.5448 55.7453 13.5299 55.7065C13.6222 55.7048 13.7159 55.7038 13.8098 55.7038C17.8873 55.7038 23.4848 57.4004 28.4363 58.9012C30.6135 59.5611 32.6699 60.1844 34.329 60.5784C36.5567 61.1075 37.2102 61.0087 37.3575 60.9659C39.8575 60.2374 53.7002 50.7632 57.7547 46.7309C58.3998 46.0886 58.5267 45.6165 58.4548 45.4697V45.4691Z"></path></svg>